
            <svg viewBox="90 500 300 380" class="w-full h-full">
<path class="st0" d="M134.6,806.7c0-2.7,1.2-4.6,4-4.6c2.8,0,4,1.9,4,4.6v9.4c0,2.7-1.2,4.6-4,4.6c-2.8,0-4-2-4-4.6V806.7z
				 M135.9,816.1c0,2,0.8,3.5,2.8,3.5c2,0,2.8-1.5,2.8-3.5v-9.5c0-2-0.8-3.5-2.8-3.5c-2,0-2.8,1.5-2.8,3.5V816.1z" />
                <path class="st0"
                    d="M104.9,739.7c-0.7,0.9-1.6,1.4-2.9,1.5v-1.1c1.8-0.1,2.7-1.2,3.1-2.6h0.9V756h-1.2V739.7z" />
                <path class="st0" d="M119.1,662.9c0,5.3-6.6,7.1-6.7,12.5v0.2h6.6v1.1h-7.8v-0.9c0-6.5,6.7-7.9,6.7-12.9c0-2.1-0.7-3.6-2.8-3.6
				c-2,0-2.8,1.6-2.8,3.5v1.3h-1.2V663c0-2.7,1.1-4.7,4-4.7C118,658.2,119.1,660.2,119.1,662.9z" />
                <path class="st0" d="M171.6,612.3v0.4c0,1.8-0.9,3.3-2.4,3.8c1.7,0.5,2.4,1.9,2.4,3.7v1.4c0,2.7-1.2,4.6-4,4.6c-2.8,0-4-2-4-4.6
				v-1h1.2v1.1c0,2,0.8,3.5,2.8,3.5s2.8-1.5,2.8-3.6v-1.4c0-1.9-0.9-3-2.7-3.1h-1.2v-1.1h1.3c1.7-0.1,2.7-1.3,2.7-3.1v-0.7
				c0-2.1-0.8-3.6-2.8-3.6s-2.8,1.5-2.8,3.5v0.7h-1.2v-0.7c0-2.7,1.2-4.6,4-4.6C170.4,607.7,171.6,609.6,171.6,612.3z" />
                <path class="st0"
                    d="M244.2,600.5v4.1H243v-4.1h-6.3v-1.1l6.1-13.2h1.4v13.2h1.5v1.1H244.2z M237.8,599.4h5.2v-11L237.8,599.4z" />
                <path class="st0" d="M310.2,616.8c0.6-1,1.6-1.4,3-1.4c2.5,0,3.6,1.9,3.6,4.5v3.2c0,2.7-1.2,4.6-4,4.6c-2.8,0-4-2-4-4.6v-1h1.2
				v1.1c0,2,0.8,3.5,2.8,3.5c2,0,2.8-1.5,2.8-3.5V620c0-2-0.8-3.5-2.8-3.5c-1.3,0-2.3,0.7-2.6,2.1v0.3H309l0.5-9.8h6.9v1.1h-5.8
				L310.2,616.8z" />
                <path class="st2" d="M367.9,667.2v0.2h-1.2v-0.3c0-2-0.8-3.4-2.8-3.4c-2.1,0-2.9,1.5-2.9,3.6v4.3c0.6-1,1.6-1.7,3.3-1.7
				c2.6,0,3.6,1.9,3.6,4.5v2.3c0,2.7-1.2,4.6-4,4.6c-2.8,0-4.1-2-4.1-4.6v-9.3c0-2.8,1.2-4.7,4.1-4.7
				C366.8,662.6,367.9,664.5,367.9,667.2z M361.1,674.5v2.2c0,2,0.8,3.5,2.9,3.5c2,0,2.8-1.4,2.8-3.5v-2.2c0-2-0.8-3.4-2.8-3.4
				C361.9,671,361.1,672.5,361.1,674.5z" />
                <path class="st2" d="M379.8,738.8H373v-1.1h8v1.1l-5.2,17.3h-1.2L379.8,738.8z" />
                <path class="st2" d="M345.8,809.5v0.6c0,1.9-0.7,3.4-2.4,3.9c1.8,0.5,2.4,2,2.4,3.9v1.3c0,2.7-1.4,4.5-4.2,4.5
				c-2.8,0-4.2-1.8-4.2-4.5v-1.3c0-1.9,0.6-3.4,2.5-3.9c-1.8-0.5-2.5-1.9-2.5-3.9v-0.6c0-2.7,1.4-4.5,4.2-4.5
				C344.4,805,345.8,806.8,345.8,809.5z M338.6,809.5v0.8c0,2.1,1,3.2,3,3.2s3-1.1,3-3.2v-0.8c0-2.2-1-3.4-3-3.4
				C339.6,806.1,338.6,807.4,338.6,809.5z M338.6,817.7v1.4c0,2.1,1,3.5,3,3.5s2.9-1.3,3-3.5v-1.4c0-2.2-1-3.2-3-3.2
				C339.6,814.5,338.6,815.6,338.6,817.7z" />
                <rect x="118.8" y="814" transform="matrix(0.616 0.7878 -0.7878 0.616 700.7452 224.4731)" class="st0"
                    width="2.7" height="33.9" />
                <rect x="79.5" y="733.7" transform="matrix(0.1309 0.9914 -0.9914 0.1309 814.1717 572.0334)" class="st0"
                    width="2.7" height="33.5" />
                <rect x="77.3" y="659.4" transform="matrix(0.9053 0.4247 -0.4247 0.9053 289.469 22.8033)" class="st0"
                    width="32.6" height="2.7" />
                <rect x="136.8" y="589.6" transform="matrix(0.5623 0.8269 -0.8269 0.5623 555.7764 131.829)" class="st0"
                    width="33.1" height="2.7" />
                <rect x="239.3" y="549.6" class="st0" width="2.7" height="31" />
                <rect x="327" y="576.3" transform="matrix(0.8447 0.5352 -0.5352 0.8447 367.618 -83.8414)" class="st0"
                    width="2.7" height="30.6" />
                <rect x="386.9" y="644.6" transform="matrix(0.4288 0.9034 -0.9034 0.4288 818.6806 26.6555)" class="st2"
                    width="2.7" height="32.3" />
                <rect x="383.4" y="750.7" transform="matrix(0.9897 0.1432 -0.1432 0.9897 111.7729 -49.5083)" class="st2"
                    width="33.1" height="2.7" />
                <rect x="345.3" y="833.6" transform="matrix(0.7425 0.6699 -0.6699 0.7425 652.5412 -27.6261)" class="st2"
                    width="33.9" height="2.7" />
                <rect x="101.7" y="810.7" transform="matrix(0.5576 0.8301 -0.8301 0.5576 727.2891 277.746)" class="st0"
                    width="2.7" height="21.1" />
                <rect x="93" y="794.7" transform="matrix(0.4836 0.8753 -0.8753 0.4836 753.5486 333.3008)" class="st0"
                    width="2.7" height="21.1" />
                <rect x="85" y="777.8" transform="matrix(0.3349 0.9422 -0.9422 0.3349 800.2328 442.9509)" class="st0"
                    width="2.7" height="21.1" />
                <rect x="77.8" y="759.5" transform="matrix(0.2091 0.9779 -0.9779 0.2091 815.5956 531.6224)" class="st0"
                    width="2.7" height="21.1" />
                <rect x="73.4" y="722.2" transform="matrix(2.734970e-02 0.9996 -0.9996 2.734970e-02 805.2009 637.9984)"
                    class="st0" width="2.7" height="21.1" />
                <rect x="65.4" y="713.3" transform="matrix(0.9982 5.964484e-02 -5.964484e-02 0.9982 42.7571 -3.2547)"
                    class="st0" width="21.1" height="2.7" />
                <rect x="67.7" y="694.7" transform="matrix(0.9753 0.2208 -0.2208 0.9753 155.6379 -8.747575e-02)"
                    class="st0" width="21.1" height="2.7" />
                <rect x="71.4" y="675.4" transform="matrix(0.9381 0.3465 -0.3465 0.9381 239.5196 13.5239)" class="st0"
                    width="21.1" height="2.7" />
                <rect x="89.2" y="640.9" transform="matrix(0.8495 0.5277 -0.5277 0.8495 353.9095 44.0343)" class="st0"
                    width="21.1" height="2.7" />
                <rect x="100.2" y="626.4" transform="matrix(0.8003 0.5996 -0.5996 0.8003 398.5127 58.9603)" class="st0"
                    width="21.1" height="2.7" />
                <rect x="112.4" y="612.2" transform="matrix(0.6924 0.7215 -0.7215 0.6924 480.4508 100.0367)" class="st0"
                    width="21.1" height="2.7" />
                <rect x="126.1" y="598.1" transform="matrix(0.5921 0.8059 -0.8059 0.5921 538.7848 134.3702)" class="st0"
                    width="21.1" height="2.7" />
                <rect x="155.8" y="575.2" transform="matrix(0.3647 0.9311 -0.9311 0.3647 642.4927 211.44)" class="st0"
                    width="21.1" height="2.7" />
                <rect x="173.3" y="570.1" transform="matrix(0.2822 0.9594 -0.9594 0.2822 680.1397 233.8594)" class="st0"
                    width="21.1" height="2.7" />
                <rect x="191.5" y="566" transform="matrix(0.1228 0.9924 -0.9924 0.1228 740.2538 297.1399)" class="st0"
                    width="21.1" height="2.7" />
                <rect x="220.1" y="553.7" transform="matrix(1 7.800890e-03 -7.800890e-03 1 4.4086 -1.7106)" class="st0"
                    width="2.7" height="21.1" />
                <rect x="368.4" y="819.9" transform="matrix(0.83 0.5577 -0.5577 0.83 522.4101 -71.7697)" class="st2"
                    width="21.1" height="2.7" />
                <rect x="377.2" y="803.9" transform="matrix(0.8754 0.4833 -0.4833 0.8754 437.4805 -87.0859)" class="st2"
                    width="21.1" height="2.7" />
                <rect x="385.1" y="787" transform="matrix(0.9423 0.3349 -0.3349 0.9423 286.8285 -86.9833)" class="st2"
                    width="21.1" height="2.7" />
                <rect x="392.3" y="768.7" transform="matrix(0.978 0.2087 -0.2087 0.978 169.5957 -67.1287)" class="st2"
                    width="21.1" height="2.7" />
                <rect x="396.7" y="731.4" transform="matrix(0.9996 2.749434e-02 -2.749434e-02 0.9996 20.3009 -10.9204)"
                    class="st2" width="21.1" height="2.7" />
                <rect x="404.8" y="704.1"
                    transform="matrix(5.958427e-02 0.9982 -0.9982 5.958427e-02 1095.2473 266.6206)" class="st2"
                    width="2.7" height="21.1" />
                <rect x="402.5" y="685.5" transform="matrix(0.2206 0.9754 -0.9754 0.2206 993.6045 148.6201)" class="st2"
                    width="2.7" height="21.1" />
                <rect x="398.7" y="666.2" transform="matrix(0.3465 0.938 -0.938 0.3465 896.2221 66.915)" class="st2"
                    width="2.7" height="21.1" />
                <rect x="380.9" y="631.7" transform="matrix(0.5274 0.8496 -0.8496 0.5274 726.3311 -21.2136)" class="st0"
                    width="2.7" height="21.1" />
                <rect x="369.9" y="617.2" transform="matrix(0.5999 0.8001 -0.8001 0.5999 650.8083 -45.8762)" class="st0"
                    width="2.7" height="21.1" />
                <rect x="357.8" y="603" transform="matrix(0.7216 0.6923 -0.6923 0.7216 524.7061 -77.8225)" class="st0"
                    width="2.7" height="21.1" />
                <rect x="344" y="588.9" transform="matrix(0.8059 0.592 -0.592 0.8059 421.8704 -88.1303)" class="st0"
                    width="2.7" height="21.1" />
                <rect x="314.4" y="566" transform="matrix(0.9312 0.3644 -0.3644 0.9312 231.821 -75.4074)" class="st0"
                    width="2.7" height="21.1" />
                <rect x="296.9" y="560.9" transform="matrix(0.9593 0.2824 -0.2824 0.9593 173.4864 -60.9541)" class="st0"
                    width="2.7" height="21.1" />
                <rect x="278.6" y="556.8" transform="matrix(0.9924 0.1231 -0.1231 0.9924 71.9608 -30.1483)" class="st0"
                    width="2.7" height="21.1" />
                <rect x="250" y="562.9" transform="matrix(8.070184e-03 1 -1 8.070184e-03 822.6917 299.2054)" class="st0"
                    width="21.1" height="2.7" />
            </svg>
